<svg id="Layer_1" data-name="Layer 1" xmlns="http://www.w3.org/2000/svg" viewBox="0 0 36 36.05"><defs><style>.cls-1{fill:#9f111b;}</style></defs><path class="cls-1" d="M38.8,23.65A15.22,15.22,0,0,0,24.1,9V6a17.66,17.66,0,0,1,6.78,1.52,18.81,18.81,0,0,1,5.57,3.83,18.55,18.55,0,0,1,3.83,5.58,17.57,17.57,0,0,1,1.52,6.77Zm-8.45,0a6.69,6.69,0,0,0-2-4.23,6.86,6.86,0,0,0-4.25-2v-3a9.73,9.73,0,0,1,6.38,2.85,9.59,9.59,0,0,1,2.87,6.35ZM39.75,42a27,27,0,0,1-12.13-3A41.25,41.25,0,0,1,16.8,31.2,41.25,41.25,0,0,1,9,20.38,27,27,0,0,1,6,8.25,2.22,2.22,0,0,1,8.25,6h7a1.82,1.82,0,0,1,1.23.47,2.3,2.3,0,0,1,.67,1.28l1.35,6.3a3.57,3.57,0,0,1,0,1.27,2,2,0,0,1-.53,1l-5,5.05a41.53,41.53,0,0,0,6.28,8.1A34.58,34.58,0,0,0,27.1,35.3l4.75-4.9A2.63,2.63,0,0,1,33,29.63a2.31,2.31,0,0,1,1.3-.08l6,1.3a2.12,2.12,0,0,1,1.25.75A2.14,2.14,0,0,1,42,33v6.75A2.22,2.22,0,0,1,39.75,42ZM11.45,18.6l4.05-4.1L14.35,9H9a17.17,17.17,0,0,0,.6,4.27A40.84,40.84,0,0,0,11.45,18.6ZM29.9,36.75a25.32,25.32,0,0,0,4.45,1.55A23.71,23.71,0,0,0,39,39V33.65l-5.15-1Z" transform="translate(-6 -5.95)"/></svg>